/* XPM */
static char * C:\Users\Emanuel Fludd\Desktop\x\bitcoin16_xpm[] = {
"16 16 133 2",
"  	c None",
". 	c #DEBD65",
"+ 	c #E0C06D",
"@ 	c #DCB959",
"# 	c #E3BF57",
"$ 	c #EBCA61",
"% 	c #EECF6F",
"& 	c #EED179",
"* 	c #E8CC77",
"= 	c #E8CE87",
"- 	c #D4AF4E",
"; 	c #DDBA59",
"> 	c #E8C457",
", 	c #ECCA5E",
"' 	c #EDCE6A",
") 	c #EFD47E",
"! 	c #F1DA8E",
"~ 	c #F2DA90",
"{ 	c #EFD582",
"] 	c #EBD284",
"^ 	c #D7B151",
"/ 	c #E4C054",
"( 	c #EBC85B",
"_ 	c #ECCB61",
": 	c #EED072",
"< 	c #F1D88B",
"[ 	c #F3DF9D",
"} 	c #F3DE9D",
"| 	c #F1D889",
"1 	c #EFD57B",
"2 	c #E4C775",
"3 	c #D3AD4C",
"4 	c #D9B34F",
"5 	c #EBC859",
"6 	c #E5C459",
"7 	c #D6B95B",
"8 	c #E2C874",
"9 	c #F2DC95",
"0 	c #F4E1A4",
"a 	c #F3DF9F",
"b 	c #F1D888",
"c 	c #E9CE72",
"d 	c #D5B04F",
"e 	c #DFBA51",
"f 	c #EBC85A",
"g 	c #D5B654",
"h 	c #E0C366",
"i 	c #E0C87A",
"j 	c #AF9F6D",
"k 	c #BCAD7F",
"l 	c #DCC98C",
"m 	c #CBB46B",
"n 	c #F0D573",
"o 	c #D3AD4B",
"p 	c #E5C155",
"q 	c #ECCA61",
"r 	c #F1D98C",
"s 	c #C2B27E",
"t 	c #D1C18C",
"u 	c #F2DB94",
"v 	c #E8CC75",
"w 	c #ECCC65",
"x 	c #EED169",
"y 	c #E7CB6E",
"z 	c #D1AA47",
"A 	c #D6B050",
"B 	c #E6C256",
"C 	c #EBC95C",
"D 	c #EFD37A",
"E 	c #F2DC94",
"F 	c #C2B382",
"G 	c #C7B681",
"H 	c #F1D98B",
"I 	c #EDCF65",
"J 	c #EAD174",
"K 	c #D0A845",
"L 	c #E6C357",
"M 	c #EDCE6B",
"N 	c #F0D682",
"O 	c #F3DE9C",
"P 	c #C3B484",
"Q 	c #C0AE77",
"R 	c #F0D683",
"S 	c #EDCE65",
"T 	c #D4AD4C",
"U 	c #E5C156",
"V 	c #EED071",
"W 	c #F4E0A1",
"X 	c #BFAC70",
"Y 	c #EED067",
"Z 	c #E8CE71",
"` 	c #D4AD4D",
" .	c #E0BB54",
"..	c #EFD279",
"+.	c #F2DB93",
"@.	c #F4E1A5",
"#.	c #C3B382",
"$.	c #BFAB6A",
"%.	c #F1D772",
"&.	c #D1A947",
"*.	c #D7B250",
"=.	c #EDCD69",
"-.	c #F0D580",
";.	c #F3DD9A",
">.	c #F4E1A6",
",.	c #C2B27F",
"'.	c #BFA963",
").	c #EBD171",
"!.	c #D6B152",
"~.	c #E5C567",
"{.	c #F3DE9A",
"].	c #EBD89B",
"^.	c #D0BC7D",
"/.	c #D8BF6D",
"(.	c #E8C863",
"_.	c #E4C86B",
":.	c #D2AC4E",
"<.	c #D8B55C",
"[.	c #EDD17D",
"}.	c #F0D786",
"|.	c #ECCC61",
"1.	c #E7CB6B",
"2.	c #D9B867",
"3.	c #DEBE6A",
"4.	c #EBCF7A",
"5.	c #EED176",
"6.	c #EDCD67",
"7.	c #E6C359",
"8.	c #E6C96A",
"9.	c #DEC078",
"0.	c #E2C476",
"a.	c #DFBF6A",
"b.	c #E0BE64",
"              . +               ",
"          @ # $ % & * =         ",
"      - ; > , ' ) ! ~ { ]       ",
"      ^ / ( _ : < [ } | 1 2     ",
"    3 4 5 6 7 8 9 0 a b % c     ",
"    d e f g h i j k l m ' n     ",
"    o p ( q : r s t u v w x y   ",
"  z A B C w D E F G H : _ I J   ",
"  K A L , M N O P Q R M , S J   ",
"    T U _ V H W P X D w C Y Z   ",
"    `  .w ..+.@.#.$.: _ ( %.    ",
"    &.*.=.-.;.>.,.'.M , f ).    ",
"      !.~.R {.].^./.(.C x _.    ",
"      :.<.[.~ E }.V _ |.1.      ",
"        2.3.4.-.5.6.7.8.        ",
"            9.0.a.b.            "};
