/* XPM */
static char * C:\Users\Emanuel Fludd\Desktop\x\bitcoin64_xpm[] = {
"64 64 670 2",
"  	c None",
". 	c #C89E37",
"+ 	c #D3AD4C",
"@ 	c #DFBE61",
"# 	c #E7C96F",
"$ 	c #EDD177",
"% 	c #EDD077",
"& 	c #E8CA72",
"* 	c #E9CC74",
"= 	c #E9CC76",
"- 	c #E9CC77",
"; 	c #EED37E",
"> 	c #F0D683",
", 	c #F1D78A",
"' 	c #F1DA95",
") 	c #CFA744",
"! 	c #CEA542",
"~ 	c #DAB658",
"{ 	c #E9CB6F",
"] 	c #E8CA6F",
"^ 	c #DDBB5F",
"/ 	c #D5AF50",
"( 	c #CDA43F",
"_ 	c #CCA23D",
": 	c #D2AB47",
"< 	c #D3AC49",
"[ 	c #D4AE4C",
"} 	c #D4AE4E",
"| 	c #CFA849",
"1 	c #D1AC50",
"2 	c #D9B760",
"3 	c #E1C36F",
"4 	c #EBD180",
"5 	c #F0D88B",
"6 	c #D5B04F",
"7 	c #D6B150",
"8 	c #E1BF63",
"9 	c #EBCE73",
"0 	c #E0BF62",
"a 	c #D1A946",
"b 	c #CDA43B",
"c 	c #DAB44B",
"d 	c #E3BE56",
"e 	c #E9C75E",
"f 	c #ECCB63",
"g 	c #ECCC65",
"h 	c #EDCD68",
"i 	c #EDCE6B",
"j 	c #EDCF6D",
"k 	c #EED070",
"l 	c #EBCD6F",
"m 	c #E5C66A",
"n 	c #DEBD63",
"o 	c #D4B057",
"p 	c #D8B661",
"q 	c #E5C878",
"r 	c #F0D78A",
"s 	c #D2AC49",
"t 	c #D2AB49",
"u 	c #D9B555",
"v 	c #EACC70",
"w 	c #E1C064",
"x 	c #D4AC43",
"y 	c #E3BF54",
"z 	c #EBC95D",
"A 	c #ECCA5E",
"B 	c #ECCA60",
"C 	c #ECCB62",
"D 	c #EECF6F",
"E 	c #EED072",
"F 	c #EED174",
"G 	c #EFD277",
"H 	c #EFD278",
"I 	c #EFD379",
"J 	c #E8CA71",
"K 	c #DBB962",
"L 	c #D6B45E",
"M 	c #E6CA7A",
"N 	c #F1D98E",
"O 	c #C89C31",
"P 	c #DBB758",
"Q 	c #E9CB6E",
"R 	c #D3AC4B",
"S 	c #D1A83F",
"T 	c #E5C154",
"U 	c #EBC95B",
"V 	c #EBC95C",
"W 	c #ECCC64",
"X 	c #EED276",
"Y 	c #EFD47C",
"Z 	c #EFD47E",
"` 	c #F0D57F",
" .	c #F0D47E",
"..	c #EFD47D",
"+.	c #E9CC75",
"@.	c #DBBA67",
"#.	c #EDD385",
"$.	c #D5B150",
"%.	c #E4C367",
"&.	c #E3C366",
"*.	c #CBA038",
"=.	c #DDB74C",
"-.	c #EBC85A",
";.	c #ECCA5F",
">.	c #ECCB61",
",.	c #EDCC66",
"'.	c #EDCE6A",
").	c #EECF6E",
"!.	c #EFD276",
"~.	c #EFD37B",
"{.	c #F0D581",
"].	c #F0D685",
"^.	c #F0D684",
"/.	c #F0D580",
"(.	c #E4C773",
"_.	c #D5B35D",
":.	c #E8CD7C",
"<.	c #F1DA93",
"[.	c #D6B151",
"}.	c #E7C86C",
"|.	c #DFBD60",
"1.	c #CBA037",
"2.	c #E2BD52",
"3.	c #EDCE6D",
"4.	c #EED071",
"5.	c #EED176",
"6.	c #F0D786",
"7.	c #F1D889",
"8.	c #F1D88A",
"9.	c #F1D88B",
"0.	c #F1D888",
"a.	c #F0D785",
"b.	c #F0D582",
"c.	c #EED684",
"d.	c #D6B55F",
"e.	c #E4C775",
"f.	c #F1D98F",
"g.	c #CBA13A",
"h.	c #E5C568",
"i.	c #DDBA5C",
"j.	c #E3BF53",
"k.	c #EDCC67",
"l.	c #F1D98B",
"m.	c #F1DA8E",
"n.	c #F2DA8F",
"o.	c #F2DA90",
"p.	c #F1D98D",
"q.	c #F1DC8B",
"r.	c #DABB66",
"s.	c #E3C571",
"t.	c #F1D88D",
"u.	c #D2AB48",
"v.	c #CEA641",
"w.	c #E0BE61",
"x.	c #DFBD5F",
"y.	c #CCA23B",
"z.	c #E0BB52",
"A.	c #EBC859",
"B.	c #F0D682",
"C.	c #F1D787",
"D.	c #F1D98C",
"E.	c #F2DB93",
"F.	c #F2DC94",
"G.	c #F2DC95",
"H.	c #F2DB94",
"I.	c #F2DB91",
"J.	c #F5E291",
"K.	c #DABB65",
"L.	c #E3C570",
"M.	c #F1D88E",
"N.	c #E3C266",
"O.	c #CCA13A",
"P.	c #DAB44E",
"Q.	c #EFD37A",
"R.	c #F2DC97",
"S.	c #F3DD99",
"T.	c #F3DD98",
"U.	c #F2DB92",
"V.	c #F0D57C",
"W.	c #F5E492",
"X.	c #D5B35A",
"Y.	c #E7C974",
"Z.	c #D2AC4A",
"`.	c #D1AB48",
" +	c #E8CA6D",
".+	c #D3AC48",
"++	c #E9C558",
"@+	c #EDCD67",
"#+	c #EDCE6C",
"$+	c #F3DE9B",
"%+	c #F3DE9C",
"&+	c #F1D980",
"*+	c #F3E18F",
"=+	c #D2AD50",
"-+	c #EBCF7A",
";+	c #E6C66A",
">+	c #D1A846",
",+	c #E1BD53",
"'+	c #EDCD69",
")+	c #EED173",
"!+	c #F2DD97",
"~+	c #F3DF9E",
"{+	c #F3DFA0",
"]+	c #F3DF9F",
"^+	c #F5E18B",
"/+	c #ECD681",
"(+	c #D5B053",
"_+	c #EFD480",
":+	c #D4AF4D",
"<+	c #DDBB5D",
"[+	c #DEBB5D",
"}+	c #CEA540",
"|+	c #D7B04B",
"1+	c #EED175",
"2+	c #EFD37C",
"3+	c #F3DE9A",
"4+	c #F4E0A1",
"5+	c #F4E0A2",
"6+	c #F4E0A0",
"7+	c #F3DE9D",
"8+	c #F0D787",
"9+	c #EFD274",
"0+	c #F8E791",
"a+	c #DEC168",
"b+	c #E1C066",
"c+	c #D6B251",
"d+	c #E9CA6E",
"e+	c #D2AA48",
"f+	c #E4BF54",
"g+	c #ECCB64",
"h+	c #F4E0A3",
"i+	c #F4E1A4",
"j+	c #F4E1A3",
"k+	c #F3DC82",
"l+	c #F6E48C",
"m+	c #D1AB4B",
"n+	c #ECCF77",
"o+	c #D8B454",
"p+	c #D0A744",
"q+	c #D7B04C",
"r+	c #F4E1A5",
"s+	c #EECF6C",
"t+	c #F7E68E",
"u+	c #E7CE75",
"v+	c #DAB75A",
"w+	c #E7C86B",
"x+	c #CCA13B",
"y+	c #E2BE53",
"z+	c #F4E1A6",
"A+	c #F3DC7F",
"B+	c #F7E68C",
"C+	c #D3AE4E",
"D+	c #EBCE74",
"E+	c #DFBE60",
"F+	c #D9B556",
"G+	c #D4AC49",
"H+	c #EAC759",
"I+	c #E7C65B",
"J+	c #D7B755",
"K+	c #E4C45D",
"L+	c #F4E2A6",
"M+	c #EED06B",
"N+	c #E7CE73",
"O+	c #DBB95B",
"P+	c #D1AA47",
"Q+	c #D0A946",
"R+	c #D0A945",
"S+	c #CDA33D",
"T+	c #DCB74F",
"U+	c #E1C058",
"V+	c #000000",
"W+	c #211B08",
"X+	c #6E5E2C",
"Y+	c #7C6B36",
"Z+	c #9C8849",
"`+	c #AF9A57",
" @	c #C0AA65",
".@	c #D3BD76",
"+@	c #DCC681",
"@@	c #EFD993",
"#@	c #F5E083",
"$@	c #F6E489",
"%@	c #D0AA47",
"&@	c #EDD076",
"*@	c #E1C063",
"=@	c #E5C055",
"-@	c #110C02",
";@	c #393012",
">@	c #AF974A",
",@	c #CCB15B",
"'@	c #D0B661",
")@	c #C1A95E",
"!@	c #BAA45F",
"~@	c #A69459",
"{@	c #9E8E59",
"]@	c #85784D",
"^@	c #746946",
"/@	c #262214",
"(@	c #706647",
"_@	c #7A7050",
":@	c #9E926A",
"<@	c #A69A71",
"[@	c #BCAE7F",
"}@	c #C4B483",
"|@	c #D6C58C",
"1@	c #DDC98D",
"2@	c #E7D28E",
"3@	c #F1D788",
"4@	c #F1D775",
"5@	c #F7E68A",
"6@	c #E0C467",
"7@	c #D4AE4D",
"8@	c #D3AD4B",
"9@	c #E0BF61",
"0@	c #D1A947",
"a@	c #685826",
"b@	c #C2A751",
"c@	c #A59769",
"d@	c #C3B585",
"e@	c #D1C28E",
"f@	c #C4B584",
"g@	c #B7A879",
"h@	c #A39568",
"i@	c #94865B",
"j@	c #706541",
"k@	c #443B21",
"l@	c #95834C",
"m@	c #EDCD64",
"n@	c #F7E689",
"o@	c #F0DB7F",
"p@	c #D5B050",
"q@	c #E7C76B",
"r@	c #705F2A",
"s@	c #DABC5D",
"t@	c #AFA071",
"u@	c #DDCD97",
"v@	c #F4E2A7",
"w@	c #F3DF9D",
"x@	c #E6CF84",
"y@	c #7E7043",
"z@	c #938149",
"A@	c #F5E183",
"B@	c #F7E588",
"C@	c #D1AC4A",
"D@	c #EDD075",
"E@	c #CCA23C",
"F@	c #E4C366",
"G@	c #CEA43F",
"H@	c #EBC85B",
"I@	c #837033",
"J@	c #EACA65",
"K@	c #EECF70",
"L@	c #B1A373",
"M@	c #F2DC96",
"N@	c #D6BE73",
"O@	c #9E8B4E",
"P@	c #EDCD6A",
"Q@	c #ECCA5D",
"R@	c #F2D978",
"S@	c #DFC164",
"T@	c #E4C468",
"U@	c #D6B050",
"V@	c #DBB759",
"W@	c #D0A845",
"X@	c #E5C155",
"Y@	c #ECCA61",
"Z@	c #D4B659",
"`@	c #B4A576",
" #	c #F3DD9A",
".#	c #E4CB79",
"+#	c #AA9553",
"@#	c #EED073",
"##	c #EFD36D",
"$#	c #EAD375",
"%#	c #DCB95B",
"&#	c #E1C062",
"*#	c #D3AC4A",
"=#	c #EAC758",
"-#	c #F4DFA0",
";#	c #B5A778",
">#	c #F4E083",
",#	c #D4AD4C",
"'#	c #CFA844",
")#	c #CDA43E",
"!#	c #D5AD4A",
"~#	c #B7A97A",
"{#	c #DECD96",
"]#	c #ECCC66",
"^#	c #F7E587",
"/#	c #E4C467",
"(#	c #D7B14C",
"_#	c #B9AA7C",
":#	c #F5E080",
"<#	c #D6B353",
"[#	c #EDCF73",
"}#	c #DBB54E",
"|#	c #EECF6D",
"1#	c #BAAC7E",
"2#	c #F4DE7E",
"3#	c #DCBD5F",
"4#	c #E6C669",
"5#	c #BBAD7E",
"6#	c #DECD95",
"7#	c #F2DA78",
"8#	c #E2C668",
"9#	c #E5C569",
"0#	c #CA9F37",
"a#	c #CA9F36",
"b#	c #CA9E35",
"c#	c #CFA642",
"d#	c #DECD94",
"e#	c #E6CC6F",
"f#	c #DDB850",
"g#	c #BDAF80",
"h#	c #DFCC93",
"i#	c #E6CC6E",
"j#	c #DDB750",
"k#	c #BEB081",
"l#	c #DFCC92",
"m#	c #BFB182",
"n#	c #DECC91",
"o#	c #DCB64F",
"p#	c #C0B282",
"q#	c #DDCA8F",
"r#	c #F2DA77",
"s#	c #E2C063",
"t#	c #E3C265",
"u#	c #D9B24D",
"v#	c #C1B283",
"w#	c #DBC88C",
"x#	c #F3DD7B",
"y#	c #C2B383",
"z#	c #DAC689",
"A#	c #E6C76A",
"B#	c #C99E35",
"C#	c #C99D33",
"D#	c #D2AA49",
"E#	c #D7C486",
"F#	c #F6E385",
"G#	c #E0BE60",
"H#	c #E7C458",
"I#	c #C3B383",
"J#	c #D4C183",
"K#	c #ECCB5E",
"L#	c #D4AF4E",
"M#	c #DEBC5E",
"N#	c #E3BE55",
"O#	c #C3B483",
"P#	c #D2BE7F",
"Q#	c #EDCF6E",
"R#	c #EED068",
"S#	c #D5AF4F",
"T#	c #D0A745",
"U#	c #DDB851",
"V#	c #EFD279",
"W#	c #C3B382",
"X#	c #CFBB7C",
"Y#	c #F1D772",
"Z#	c #E1BF62",
"`#	c #CEA440",
" $	c #D6B04C",
".$	c #C3B381",
"+$	c #CCB878",
"@$	c #F4DD7C",
"#$	c #DFC264",
"$$	c #D5AF4E",
"%$	c #D5B04E",
"&$	c #D3AB4A",
"*$	c #E9C65A",
"=$	c #C3B380",
"-$	c #CAB675",
";$	c #F7E486",
">$	c #D3AE4D",
",$	c #DCBA5C",
"'$	c #D6B152",
")$	c #D1AA48",
"!$	c #E1BD56",
"~$	c #C3B37F",
"{$	c #C8B472",
"]$	c #EFD16A",
"^$	c #F0DC7E",
"/$	c #D8B353",
"($	c #C89C32",
"_$	c #E0BF63",
":$	c #CEA541",
"<$	c #D3AB4B",
"[$	c #D9B350",
"}$	c #F1DA8F",
"|$	c #C3B27D",
"1$	c #C7B270",
"2$	c #F3DB79",
"3$	c #E0C466",
"4$	c #CDA440",
"5$	c #E0BE62",
"6$	c #D3AC4D",
"7$	c #E8C55D",
"8$	c #C3B27C",
"9$	c #C6B16E",
"0$	c #ECCA5C",
"a$	c #F6E486",
"b$	c #D8B556",
"c$	c #D0A846",
"d$	c #DEBA57",
"e$	c #C2B17A",
"f$	c #C2AD6A",
"g$	c #F0D56F",
"h$	c #E8CF71",
"i$	c #DEBB5E",
"j$	c #E1C164",
"k$	c #D3AD4E",
"l$	c #D5AF51",
"m$	c #EAC962",
"n$	c #A39464",
"o$	c #807142",
"p$	c #E7CD78",
"q$	c #F5E182",
"r$	c #EBCD71",
"s$	c #C89D33",
"t$	c #DDBA5E",
"u$	c #D1A948",
"v$	c #D4AE51",
"w$	c #DFBC5B",
"x$	c #EFDB9F",
"y$	c #D6C48B",
"z$	c #A69768",
"A$	c #191508",
"B$	c #6A5C32",
"C$	c #726333",
"D$	c #8A773C",
"E$	c #E9CA67",
"F$	c #E7CE71",
"G$	c #E3C469",
"H$	c #CFA745",
"I$	c #D6B155",
"J$	c #EAC967",
"K$	c #CBBB87",
"L$	c #887D57",
"M$	c #A39467",
"N$	c #BBAA73",
"O$	c #CEBA7B",
"P$	c #DBC57E",
"Q$	c #EBD281",
"R$	c #F5E385",
"S$	c #ECCE72",
"T$	c #D8B557",
"U$	c #E2C167",
"V$	c #CFA746",
"W$	c #D5B055",
"X$	c #F1D671",
"Y$	c #DEC061",
"Z$	c #E2C164",
"`$	c #C99F38",
" %	c #C99E34",
".%	c #C99E36",
"+%	c #D8B356",
"@%	c #D7B357",
"#%	c #D2AC4F",
"$%	c #D6B25A",
"%%	c #E6C568",
"&%	c #EDCC61",
"*%	c #EBD476",
"=%	c #CEA643",
"-%	c #D0A847",
";%	c #E4C56D",
">%	c #D1AB4C",
",%	c #D5B057",
"'%	c #D8B55F",
")%	c #EBCD70",
"!%	c #F3DD97",
"~%	c #F4DF7E",
"{%	c #F2DE81",
"]%	c #D6B253",
"^%	c #D6B255",
"/%	c #D8B559",
"(%	c #E5C66F",
"_%	c #D0A94B",
":%	c #D7B45C",
"<%	c #DDBB66",
"[%	c #F1D874",
"}%	c #D3AF4D",
"|%	c #D1AA49",
"1%	c #D5B154",
"2%	c #E3C46E",
"3%	c #D1AB4F",
"4%	c #D8B560",
"5%	c #E0C06B",
"6%	c #F2DA91",
"7%	c #EFD36C",
"8%	c #CAA03A",
"9%	c #CBA23D",
"0%	c #D2AD4F",
"a%	c #D2AD52",
"b%	c #D8B663",
"c%	c #E3C46F",
"d%	c #EECF67",
"e%	c #F4E082",
"f%	c #D7B458",
"g%	c #D8B55B",
"h%	c #DCBC65",
"i%	c #E6C875",
"j%	c #D2AD53",
"k%	c #D8B664",
"l%	c #F0DA7C",
"m%	c #D1AB49",
"n%	c #D8B65C",
"o%	c #DCBB65",
"p%	c #E7CA78",
"q%	c #D6B35C",
"r%	c #D7B461",
"s%	c #E3C471",
"t%	c #E5CA6C",
"u%	c #E8C96D",
"v%	c #CDA549",
"w%	c #CDA442",
"x%	c #E0C16D",
"y%	c #DFC16D",
"z%	c #D3B059",
"A%	c #DFBF6B",
"B%	c #EED179",
"C%	c #EBCA5D",
"D%	c #E9CB67",
"E%	c #D5B252",
"F%	c #DBB75A",
"G%	c #ECCE74",
"H%	c #D2AE52",
"I%	c #D4AF55",
"J%	c #DCBC67",
"K%	c #E7CB7A",
"L%	c #DAB965",
"M%	c #D6B35B",
"N%	c #E6C76D",
"O%	c #ECC95E",
"P%	c #E1BD52",
"Q%	c #D5B04B",
"R%	c #DCBD74",
"S%	c #D9B862",
"T%	c #DAB962",
"U%	c #E2C472",
"V%	c #E6C978",
"W%	c #DDBE6A",
"X%	c #D5B158",
"Y%	c #DCBA60",
"Z%	c #EACB6D",
"`%	c #E7C55E",
" &	c #E0BD55",
".&	c #D7B049",
"+&	c #CFA640",
"@&	c #D9B557",
"#&	c #E6C76C",
"$&	c #D8B868",
"%&	c #D4B158",
"&&	c #D9B761",
"*&	c #E3C572",
"=&	c #DFC06B",
"-&	c #D8B55D",
";&	c #D3AE53",
">&	c #D2AB4C",
",&	c #D0A844",
"'&	c #D0A949",
")&	c #D5B052",
"!&	c #E3C36A",
"~&	c #EDD17A",
"{&	c #D1AD60",
"]&	c #D6B465",
"^&	c #DEBF6F",
"/&	c #E4C676",
"(&	c #EED486",
"_&	c #F0D789",
":&	c #F0D687",
"<&	c #F0D686",
"                                                                                                                                ",
"                                                                                                                                ",
"                                                    . + @ # $ % & * = - ; > , '                                                 ",
"                                              ) ! ~ { ] ^ / ( _ : < [ } | 1 2 3 4 5                                             ",
"                                          6 7 8 9 0 a b c d e f g h i j k l m n o p q r                                         ",
"                                      s t u v w ( x y z A B C g h i D E F G H I I J K L M N                                     ",
"                                    O O P Q R S T U V A B C W h i D E X I Y Z ` `  ...+.2 @.#.                                  ",
"                                6 6 $.%.&.*.=.-.-.V z ;.>.f ,.'.).E !.~.Z {.> ].].^.> /...(._.:.<.                              ",
"                              6 6 [.}.|.1.2.-.-.U V A B C g h 3.4.5.~.` > 6.7.8.9.8.0.a.b.Z c.d.e.f.                            ",
"                            g.g.*.h.i.g.j.-.-.-.U V A B f k.i D F I  .> 0.l.m.n.o.n.p.8.6.b...q.r.s.t.                          ",
"                          u.v.( w.x.y.z.A.-.-.-.V z ;.>.W h j E G ..B.C.D.o.E.F.G.H.I.m.8.a./.Y J.K.L.M.                        ",
"                        6 6 6 x.N.O.P.A.-.-.-.U V A B C ,.'.D F Q./.6.l.o.F.R.S.S.T.G.U.p.0.> ..V.W.X.Y.                        ",
"                        Z.`.7  +y..+++A.-.-.-.U V A >.W @+#+4.G ..> 7.n.H.T.$+%+%+$+S.G.o.8.]. .H &+*+=+-+                      ",
"                      O O O ;+a >+,+A.A.-.-.-.V z ;.C g '+).)+I ` 6.D.U.!+$+~+{+]+~+$+R.U.D.6.` I )+^+/+(+_+                    ",
"                    6 6 :+<+[+}+|+A.A.-.-.-.U V A B f ,.i k 1+2+B.7.n.G.3+~+4+5+5+6+7+T.E.p.8+/.Q.)+9+0+a+b+                    ",
"                    6 6 c+d+y.e+f+A.A.-.-.-.U V A >.g+h #+E H Z ].l.U.T.7+6+h+i+j+4+~+S.F.p.8+/.I )+).k+l+m+n+                  ",
"                  *.*.*.i.o+p+q+A.A.A.-.-.-.V z ;.C g '+).F Q./.C.m.F.3+]+5+r+r+i+5+~+S.H.p.6.` I )+j s+t+u+v+                  ",
"                  v.( v.w+x+e+y+A.A.-.-.-.U V A B C ,.i k 5.Y > 8.o.R.%+4+i+z+z+r+5+~+S.E.D.6. .H E #+h A+B+C+D+                ",
"                6 6 6 E+F+p+G+H+A.A.-.-.-.U I+J+K+W h #+E H  .a.D.E.S.~+5+r+L+L+r+5+~+T.U.l.^...G 4.i @+M+B+N+O+                ",
"                P+Q+R+w+S+e+T+A.A.A.-.-.-.V U+V+V+W+X+Y+Z+`+ @.@+@@@$+6+i+z+L+L+r+4+7+R.o.8.> Y 1+D '.,.C #@$@%@&@              ",
"                O O }+*@}+e+=@A.A.-.-.-.U V z -@;@>@,@'@)@!@~@{@]@^@/@(@_@:@<@[@}@|@1@2@n.3@{.Q.F ).'+g >.4@5@6@N.              ",
"              6 7@8@9@7@0@G+A.A.A.-.-.-.U V A a@b@@+#+E H Z a.D.E.S.c@V+V+d@e@f@g@h@i@j@V+k@l@H E 3.h W >.m@n@o@p@              ",
"              6 6 6 q@y.e+P.A.A.A.-.-.-.V z ;.r@s@'+).)+Q./.C.m.G.$+t@V+V+u@v@r+5+w@T.I.x@y@z@!.k i @+f B A A@B@C@D@            ",
"              *.*.E@F@G@e+z.A.A.A.-.-.H@V A B I@J@'.K@1+Y > 7.o.R.7+L@V+V+u@L+i+4+%+M@n.7.N@O@1+D P@g C ;.Q@R@B@S@T@            ",
"            v.( ( U@V@W@e+X@A.A.-.-.-.U V A Y@Z@@+#+4.G Z a.D.E.S.~+`@V+V+u@z+j+]+ #H.p.6..#+#@#j h W >.;.z ##B@$#%#            ",
"            6 6 6 &#*#e+e+=#A.A.-.-.-.V z ;.>.g '+).)+Q./.C.m.G.$+-#;#V+V+u@r+5+~+T.U.l.^...)@4.i @+f B A V m@B@>#,#            ",
"            '#W@W@&.)#e+!#A.A.A.-.-.H@V A B C ,.'.D 1+2+B.7.o.R.%+4+~#V+V+{#i+4+%+M@o.7.B.~.1+D '.]#C ;.Q@V -.^#^#Z.1+          ",
"            O O O /#y.e+(#A.A.-.-.-.U V A Y@f @+#+4.G Z ].D.U.S.~+5+_#V+V+{#j+]+3+F.p.8+` I @#j h W >.;.z V -.:#^#<#[#          ",
"            8@8@8@&.G@e+}#A.A.-.-.-.V z ;.>.W '+|#)+I /.8+m.G.3+{+i+1#V+V+{#5+~+T.U.l.^...G 4.#+@+f B A V U -.2#^#3#4#          ",
"            6 6 6 F@}+e+T+A.A.-.-.H@V A B C ,.'.D 1+2+B.7.o.R.%+4+r+5#V+V+6#4+%+M@o.7.B.~.1+D '.,.C B Q@V -.-.7#^#8#9#          ",
"            0#a#b#w.c#e+T+A.-.-.-.U V A B f @+#+4.G Z ].l.U.T.~+5+r+[@V+V+d#]+3+F.p.8+/.I )+j h W >.;.z V -.-.7#^#e#*@          ",
"            ( ( )#w.p+e+f#A.-.-.-.V z ;.>.W '+j )+I /.C.N F.3+-#i+z+g#V+V+h#~+T.U.l.^...G 4.#+@+f B A V U -.-.7#^#i#w.          ",
"            6 6 6 9@W@e+j#A.-.-.-.V A B C ]#'.D 1+~.B.7.o.M@%+4+i+L+k#V+V+l#%+M@o.7.B.~.1+D '.,.C B A V -.-.-.7#^#i#w.          ",
"            W@W@W@w.p+e+T+-.-.-.U V A B f @+#+4.G ..^.l.U.T.~+5+r+v@m#V+V+n#3+F.N 8+/.I )+j '+W >.;.z V -.-.-.7#^#i#w.          ",
"            O O O 0 c#e+o#-.-.-.V z ;.>.W h j )+I /.8+p.F.3+]+i+z+v@p#V+V+q#T.U.l.].Z G 4.#+@+f B A V U -.-.-.r#^#e#s#          ",
"            :+[ 7@t#}+e+u#-.-.-.V Q@B C ,.'.D 1+~.B.7.o.M@%+4+i+L+v@v#V+V+w#R.o.7.B.2+1+D '.,.C B A V H@-.-.A.x#^#8#h.          ",
"            6 6 6 t#G@e+q+-.-.U V A B f @+i 4.G ..^.l.U.T.~+5+r+v@v@y#V+V+z#G.m.8+/.I )+|#'+g >.;.z V -.-.-.A.:#^#3#A#          ",
"            B#C#C#*@y.e+D#-.-.V z ;.>.W h j )+I ` 8+p.F. #]+j+z+v@v@y#V+V+E#U.D.].Z G 4.#+@+f Y@A V U -.-.-.A.F#^#<#1+          ",
"            )#( ( G#c#e+D#H#-.V Q@;.C g '.D 1+~.B.7.o.M@%+4+i+L+v@L+I#V+V+J#o.7.B.2+1+D '.,.C B A V H@-.-.A.K#^#^#L#            ",
"            6 6 6 M#7@D#D#N#U V A B f @+i 4.G ..^.l.U.T.~+5+r+v@v@L+O#V+V+P#m.C./.Q.)+Q#'+g >.;.z V -.-.-.A.R#^#>#S#            ",
"              R+R+8@%#T#D#U#V z ;.>.W h j E V#` 6.p.H. #]+j+z+v@v@r+W#V+V+X#D.a.Z G 4.#+@+g+Y@A V U -.-.-.A.Y#^#$#<+            ",
"              O O O Z#`#D# $V Q@;.C g P@D 1+~.b.7.n.M@%+4+i+L+v@L+r+.$V+V++$7.> Y 1+K@'.,.C B A V H@-.-.A.A.@$^##$h.            ",
"              $$%$6 %.( t &$*$A B f @+i k !...^.9.I.T.w@5+r+L+v@z+i+=$V+V+-$C./.Q.)+).'+g >.;.z V -.-.-.A.U ;$^#>$1+            ",
"              6 6 6 ,$'$)$&$!$;.>.W h 3.E H ` 6.p.E. #]+h+z+v@v@r+h+~$V+V+{$a.Z H 4.#+@+g+>.A V U -.-.-.A.]$^#^$/$              ",
"                ($O ($_$:$<$[$;.>.g '+).F Q.{.3@}$G.$+6+i+L+v@L+r+4+|$V+V+1$> Y 1+k i ,.C B A V U -.-.-.A.2$^#3$&.              ",
"                )#( 4$5$:$<$6$7$C ,.'.D 1+Y > 8.o.R.%+4+r+L+L+z+i+6+8$V+V+9$/.Q.F ).'+g >.;.z V -.-.-.A.0$;$a$Z.                ",
"                  6 p@b$<+c$6$d$f @+i 4.G ..^.l.U.T.w@5+r+L+L+r+5+~+e$V+V+f$ .H E #+h W Y@A V U -.-.-.A.g$^#h$i$                ",
"                  Q+W@Q+j$4$k$l$m$h #+E H  .6.D.E.S.~+5+r+z+z+i+4+%+n$V+V+o$p$5.k i ,.C B A V H@-.-.-.A.q$^#L#r$                ",
"                    ($s$) t$u$v$w$h j @#V#` 6.p.H.S.~+5+i+r+i+x$y$z$V+V+V+A$B$C$D$E$g >.;.z V -.-.-.A.##^#F$i.                  ",
"                    p@$.'$G$H$v$I$J$j )+I /.8+p.H.S.~+4+h+i+K$L$M$N$O$P$Q$Z H E #+h g+>.A V U -.-.-.U q$R$8@S$                  ",
"                      $.'$T$U$V$W$t$).)+I /.6.p.E.T.7+6+4+5+6+~+ #G.n.7.B.2+1+k i ,.C B A V U -.-.-.X$^#Y$Z$                    ",
"                      `$ %.%+%@%#%$%%%)+I ` 6.D.U.R.$+~+]+]+~+$+R.U.D.6.` I )+).'+g >.;.z V -.-.-.&%;$*%[.                      ",
"                        =%H$-%;%>%,%'%)%H Z ^.8.o.F.T.$+%+%+3+!%E.m.7.> ..G 4.#+@+g+>.A V U -.-.-.~%{%Z.S$                      ",
"                          ]%^%/%(%_%:%<%5.Y B.0.p.I.G.R.T.T.M@H.o.l.a.` Q.F D '.,.C B A V U -.-.[%R$}%q@                        ",
"                            |%m+1%2%3%4%5%Q.` ].8.p.6%E.F.H.U.n.l.8+b.Y G 4.#+h W >.;.z V -.-.7%R$<#/#                          ",
"                              8%9%0%2%a%b%c%Y {.6.7.D.m.n.}$p.8.C.> Z I F D '.,.f B A V U -.d%e%<#t#                            ",
"                                f%g%h%i%j%k%s...{.^.C.7.8.7.3@6.B.Z Q.1+4.#+h g C ;.A V U d%l%m%T@                              ",
"                                  g%n%o%p%q%r%s%Y ` b.> ^.^.B./...Q.5.E j '.,.f B A z V ##t%t u%                                ",
"                                    v%w%| x%y%z%A%B%Y ..Z Z ..~.H 1+E ).i @+W >.;.A C%D%E%F%G%                                  ",
"                                        H%I%J%K%L%M%N%H H H G 5.)+4.).i h g C B O%P%Q%S#}.                                      ",
"                                          R%S%T%U%V%W%X%Y%T@Z%4.D 3.'.h g `% &.&+&@&#&                                          ",
"                                                $&%&&&3 *&=&-&;&>&7@8@,&'&)&t$!&~&                                              ",
"                                                        {&]&^&/&(&_&:&<&                                                        ",
"                                                                                                                                "};
