/* XPM */
static char * C:\Users\Emanuel Fludd\Desktop\x\bitcoin32_xpm[] = {
"32 32 325 2",
"  	c None",
". 	c #D2AA4A",
"+ 	c #DEBD60",
"@ 	c #DFBE62",
"# 	c #DDBB60",
"$ 	c #DDBB5F",
"% 	c #DDBC63",
"& 	c #E0C06A",
"* 	c #E5C879",
"= 	c #EFD894",
"- 	c #D4AE4D",
"; 	c #E1C063",
"> 	c #DCB95A",
", 	c #DCB64E",
"' 	c #E5C158",
") 	c #ECCB63",
"! 	c #EDCD68",
"~ 	c #EECF6E",
"{ 	c #EED073",
"] 	c #E8CA70",
"^ 	c #E1C169",
"/ 	c #E2C472",
"( 	c #EED793",
"_ 	c #D3AE4C",
": 	c #D1AA47",
"< 	c #DDBB5D",
"[ 	c #DBB54C",
"} 	c #EAC75A",
"| 	c #ECCA5D",
"1 	c #ECCB61",
"2 	c #EDCD67",
"3 	c #EECF6F",
"4 	c #EFD276",
"5 	c #EFD47D",
"6 	c #F0D581",
"7 	c #F0D582",
"8 	c #EED37E",
"9 	c #E2C470",
"0 	c #E5CA7C",
"a 	c #CDA43F",
"b 	c #D7B252",
"c 	c #DFBA4F",
"d 	c #EBC85A",
"e 	c #EBC95C",
"f 	c #ECCA5F",
"g 	c #ECCC64",
"h 	c #EDCE6C",
"i 	c #EED175",
"j 	c #F0D57F",
"k 	c #F1D787",
"l 	c #F1D98C",
"m 	c #F1D98D",
"n 	c #F1D889",
"o 	c #F0D682",
"p 	c #EBD27F",
"q 	c #E4C877",
"r 	c #D4AF4D",
"s 	c #D5AF4E",
"t 	c #DCB95B",
"u 	c #DDB84F",
"v 	c #EBC95D",
"w 	c #EED070",
"x 	c #EFD37B",
"y 	c #F0D787",
"z 	c #F2DA90",
"A 	c #F2DC96",
"B 	c #F2DB92",
"C 	c #EFD47E",
"D 	c #ECD581",
"E 	c #E3C673",
"F 	c #DEBC5E",
"G 	c #D4AC47",
"H 	c #EAC759",
"I 	c #EBC95B",
"J 	c #ECCA5E",
"K 	c #EDCE6B",
"L 	c #F1D98E",
"M 	c #F3DD98",
"N 	c #F3DF9D",
"O 	c #F1DA8E",
"P 	c #EFD479",
"Q 	c #EAD37E",
"R 	c #E6C875",
"S 	c #D5B04F",
"T 	c #DDBB5C",
"U 	c #D3AC4A",
"V 	c #E5C155",
"W 	c #EBC859",
"X 	c #ECCC65",
"Y 	c #EFD37A",
"Z 	c #F2DB94",
"` 	c #F4E0A2",
" .	c #F3DE9B",
"..	c #F0D683",
"+.	c #F2D97E",
"@.	c #E2C56C",
"#.	c #CCA33C",
"$.	c #D9B556",
"%.	c #D7B04B",
"&.	c #EED072",
"*.	c #F0D47E",
"=.	c #F4E0A1",
"-.	c #F4E1A5",
";.	c #F4E1A3",
">.	c #F3DE9C",
",.	c #F3DF86",
"'.	c #DFBE64",
").	c #D2AC4A",
"!.	c #DBB95A",
"~.	c #D2AA47",
"{.	c #E2BD53",
"].	c #EBC85B",
"^.	c #C1A54B",
"/.	c #AB9345",
"(.	c #BDA453",
"_.	c #CFB665",
":.	c #DAC276",
"<.	c #F0D98F",
"[.	c #F4E1A4",
"}.	c #F4E2A6",
"|.	c #F3DE9A",
"1.	c #F0D580",
"2.	c #EED173",
"3.	c #EDCD69",
"4.	c #F1D979",
"5.	c #E3C86C",
"6.	c #D1A946",
"7.	c #E9C658",
"8.	c #B99E48",
"9.	c #B39A4C",
"0.	c #D7BB63",
"a.	c #D9BF6E",
"b.	c #D0BB75",
"c.	c #C1AF76",
"d.	c #5A5237",
"e.	c #968A65",
"f.	c #BBAD7E",
"g.	c #C1B17F",
"h.	c #B9A873",
"i.	c #B8A569",
"j.	c #DDC472",
"k.	c #EDCC66",
"l.	c #EDCE67",
"m.	c #F0DB7F",
"n.	c #DFBD61",
"o.	c #D0A844",
"p.	c #D0A845",
"q.	c #DAB658",
"r.	c #D8B14C",
"s.	c #BCA14B",
"t.	c #EBCB67",
"u.	c #F3DD99",
"v.	c #756B4A",
"w.	c #A2966E",
"x.	c #F4E1A6",
"y.	c #F3DF9F",
"z.	c #D1BA74",
"A.	c #CAB163",
"B.	c #EDCF6D",
"C.	c #F5E183",
"D.	c #DFBF62",
"E.	c #D1AA48",
"F.	c #D5B050",
"G.	c #D4AD4C",
"H.	c #DDB750",
"I.	c #E5C55F",
"J.	c #EED176",
"K.	c #756B4C",
"L.	c #A2966D",
"M.	c #F2DA8F",
"N.	c #D9BE69",
"O.	c #EDCE6A",
"P.	c #ECCB62",
"Q.	c #F3DB79",
"R.	c #E4C86A",
"S.	c #CDA43E",
"T.	c #CFA541",
"U.	c #E1BD53",
"V.	c #EDCF6E",
"W.	c #F2DC95",
"X.	c #F4DFA0",
"Y.	c #756C4D",
"Z.	c #A2956D",
"`.	c #F1D98B",
" +	c #EED071",
".+	c #ECCA60",
"++	c #F0D571",
"@+	c #E6CC6F",
"#+	c #DAB758",
"$+	c #D0A744",
"%+	c #E2BE53",
"&+	c #ECCA61",
"*+	c #A2956C",
"=+	c #F2DC94",
"-+	c #EFD379",
";+	c #F0D46E",
">+	c #EDD679",
",+	c #CBA038",
"'+	c #D8B354",
")+	c #E6C356",
"!+	c #776E4F",
"~+	c #A2956A",
"{+	c #EECF67",
"]+	c #EFD97C",
"^+	c #E6C256",
"/+	c #7B7152",
"(+	c #A29469",
"_+	c #EECF66",
":+	c #E0BE61",
"<+	c #E2BD54",
"[+	c #F4E2A7",
"}+	c #7F7555",
"|+	c #A19366",
"1+	c #D0A945",
"2+	c #DBB85A",
"3+	c #D0A743",
"4+	c #E1BC53",
"5+	c #837957",
"6+	c #A19364",
"7+	c #F0D46F",
"8+	c #E8D072",
"9+	c #D1AB48",
"0+	c #D8B454",
"a+	c #D2AA48",
"b+	c #DCB650",
"c+	c #F0D786",
"d+	c #887D5A",
"e+	c #A19261",
"f+	c #F2DA77",
"g+	c #E6CB6E",
"h+	c #CCA23B",
"i+	c #D6AF4C",
"j+	c #8C815C",
"k+	c #A1915E",
"l+	c #F5E080",
"m+	c #E2C567",
"n+	c #D9B657",
"o+	c #D2AB49",
"p+	c #E9C65B",
"q+	c #EDCD6A",
"r+	c #EED174",
"s+	c #91855D",
"t+	c #A0905B",
"u+	c #ECCB5E",
"v+	c #F5E385",
"w+	c #CAA037",
"x+	c #D1A846",
"y+	c #E0BC57",
"z+	c #EFD278",
"A+	c #F0D785",
"B+	c #F2DB93",
"C+	c #F3DF9E",
"D+	c #96895F",
"E+	c #A08F58",
"F+	c #F0D56F",
"G+	c #E9D173",
"H+	c #D7B253",
"I+	c #D6B050",
"J+	c #ECCB65",
"K+	c #F1D888",
"L+	c #877A53",
"M+	c #7D6F41",
"N+	c #EED27A",
"O+	c #F5E081",
"P+	c #E1C164",
"Q+	c #CDA540",
"R+	c #D9B557",
"S+	c #D2AB4C",
"T+	c #E3C160",
"U+	c #EFD47C",
"V+	c #F1D88A",
"W+	c #D3C28C",
"X+	c #BAA976",
"Y+	c #A0905D",
"Z+	c #AE9A5C",
"`+	c #BEA65C",
" @	c #D6B95F",
".@	c #EFD26B",
"+@	c #EAD275",
"@@	c #D2AD4D",
"#@	c #D9B559",
"$@	c #D7B258",
"%@	c #ECCE6F",
"&@	c #F4E0A0",
"*@	c #ECC95C",
"=@	c #F3DE7E",
"-@	c #DFBE60",
";@	c #D3AD4E",
">@	c #D9B75B",
",@	c #D7B358",
"'@	c #DEBD65",
")@	c #F2DA91",
"!@	c #F3DD9A",
"~@	c #F2DD97",
"{@	c #F0D684",
"]@	c #F2D976",
"^@	c #CDA543",
"/@	c #D5B054",
"(@	c #D8B55E",
"_@	c #E2C36E",
":@	c #F2DB91",
"<@	c #EFD36E",
"[@	c #E4C86B",
"}@	c #D8B65E",
"|@	c #DDBD67",
"1@	c #DAB964",
"2@	c #EBCD67",
"3@	c #DEBF61",
"4@	c #CFAA59",
"5@	c #D5B157",
"6@	c #DDBD69",
"7@	c #EDD078",
"8@	c #E9C75C",
"9@	c #E1C05B",
"0@	c #DCBA5D",
"a@	c #DCBD72",
"b@	c #DEBE6C",
"c@	c #DBBA65",
"d@	c #E1C26A",
"e@	c #E0BF64",
"f@	c #E1C060",
"g@	c #E1BE5B",
"h@	c #DEBA57",
"i@	c #DEBB5A",
"j@	c #DAB75C",
"                                                                ",
"                        . + @ # $ % & * =                       ",
"                    - ; > , ' ) ! ~ { ] ^ / (                   ",
"                _ : < [ } | 1 2 3 4 5 6 7 8 9 0                 ",
"              a b < c d e f g h i j k l m n o p q               ",
"            r s t u d d v 1 2 w x y z A A B n C D E             ",
"            a F G H d I J ) K i 6 L M N N M O o P Q R           ",
"          S T U V W d e f X ~ Y y Z N ` `  .z ..4 +.@.          ",
"          #.$.%.W d d v 1 ! &.*.l M =.-.;.>.z o i K ,.'.        ",
"        ).!.~.{.W d ].^./.(._.:.<.>.[.}.;.|.O 1.2.3.4.5.        ",
"        a $.6.7.W d e 8.9.0.a.b.c.d.e.f.g.h.i.j.w k.l.m.n.      ",
"      o.p.q.r.W d d v s.t.&.C l u.v.w.x.y.Z z.A.B.g f C.D.      ",
"      E.F.G.H.W d ].J I.K J...z >.K.L.[.>.M.7 N.O.P.| Q.R.      ",
"      S.q.T.U.W d I f X V.Y k W.X.Y.Z.` M `.5  +2 .+e ++@+      ",
"      S #+$+%+d d v &+2  +C l M ` Y.*+y.=+y -+B.g f I ;+>+      ",
"      ,+'+$+)+d ].J P.O.i o z >.[.!+~+>.z o i O.P.| ].{+]+      ",
"      ).> $+^+d I f X V.-+y =+y.x./+(+M `.C  +2 .+e d _+]+:+    ",
"      a s $+<+d e .+2  +C `.M ` [+}+|+=+k -+V.X f I d ;+]+      ",
"      1+2+3+4+].| P.O.i o z >.[.[+5+6+z o i O.P.J ].d 7+8+      ",
"      9+0+a+b+I f g B.-+c+Z y.x.[+d+e+l C  +2 &+v d d f+g+      ",
"      h+h+b i+e .+2  +5 `.M ` [+}.j+k+k Y ~ X f e d W l+m+      ",
"        S n+o+p+P.q+r+6 M. .[.[+[.s+t+..J.K ) J ].d u+v+<       ",
"        w+F.x+y+g h z+A+B+C+-.}.` D+E+C &.! 1 v d d F+G+        ",
"        _ - H+I+J+3 x K+W.X.-.-.y.L+M+N+~ X f e d W O+P+        ",
"          Q+R+S+T+w U+V+A X.[.W+X+Y+Z+`+ @) J I d .@+@          ",
"          @@E.#@$@%@U+n W.N &@C+A V+C  +! 1 v d *@=@-@          ",
"            ;@>@,@'@Y c+)@M !@~@M.{@z+B.X f e d ]@D.            ",
"              ^@/@(@_@1.n z :@O k 5 { 3.P.J I <@[@              ",
"                }@|@1@9 1.A+y {@C J.B.X .+v 2@3@                ",
"                  4@5@6@& 7@x -+i ~ ! P.8@9@0@                  ",
"                      a@b@c@d@e@f@g@h@i@j@                      ",
"                                                                "};
